<svg width="660" height="468" viewBox="0 0 660 468" fill="none" xmlns="http://www.w3.org/2000/svg">
  <defs>
    <linearGradient id="ground" x1="80" y1="56" x2="566" y2="402" gradientUnits="userSpaceOnUse">
      <stop stop-color="#EEE6D7" />
      <stop offset="1" stop-color="#DDD2BF" />
    </linearGradient>
    <linearGradient id="greenbelt" x1="200" y1="120" x2="452" y2="360" gradientUnits="userSpaceOnUse">
      <stop stop-color="#A8BF8D" />
      <stop offset="1" stop-color="#7E9A65" />
    </linearGradient>
  </defs>

  <rect x="56" y="48" width="548" height="372" rx="38" fill="url(#ground)" />

  <path
    d="M92 348H572"
    stroke="#C8B99F"
    stroke-width="18"
    stroke-linecap="round"
    opacity="0.95"
  />
  <path
    d="M92 132H572"
    stroke="#CDBFA7"
    stroke-width="14"
    stroke-linecap="round"
    opacity="0.7"
  />
  <path
    d="M118 78V392"
    stroke="#C8B99F"
    stroke-width="16"
    stroke-linecap="round"
    opacity="0.82"
  />
  <path
    d="M548 70V396"
    stroke="#C8B99F"
    stroke-width="18"
    stroke-linecap="round"
    opacity="0.92"
  />

  <rect x="154" y="154" width="352" height="188" rx="22" fill="#E4DACA" stroke="#EDE5D8" stroke-width="4" />
  <rect x="176" y="174" width="308" height="150" rx="18" fill="url(#greenbelt)" opacity="0.95" />

  <path
    d="M328 170V324"
    stroke="#D8D0BF"
    stroke-width="28"
    stroke-linecap="round"
    opacity="0.95"
  />
  <path
    d="M214 248H450"
    stroke="#CAD6B6"
    stroke-width="18"
    stroke-linecap="round"
    opacity="0.55"
  />

  <g opacity="0.95">
    <rect x="170" y="88" width="68" height="22" rx="7" fill="#AEBE93" stroke="#7F9565" stroke-width="3" />
    <rect x="246" y="88" width="76" height="22" rx="7" fill="#AEBE93" stroke="#7F9565" stroke-width="3" />
    <rect x="332" y="88" width="92" height="22" rx="7" fill="#AEBE93" stroke="#7F9565" stroke-width="3" />
    <rect x="434" y="88" width="78" height="22" rx="7" fill="#AEBE93" stroke="#7F9565" stroke-width="3" />
  </g>

  <g opacity="0.95">
    <rect x="170" y="186" width="78" height="16" rx="6" fill="#F2EADF" stroke="#C2B49F" stroke-width="2.5" />
    <rect x="170" y="210" width="78" height="16" rx="6" fill="#F2EADF" stroke="#C2B49F" stroke-width="2.5" />
    <rect x="170" y="234" width="78" height="16" rx="6" fill="#F2EADF" stroke="#C2B49F" stroke-width="2.5" />
    <rect x="170" y="258" width="78" height="16" rx="6" fill="#F2EADF" stroke="#C2B49F" stroke-width="2.5" />

    <rect x="408" y="186" width="64" height="16" rx="6" fill="#F2EADF" stroke="#C2B49F" stroke-width="2.5" />
    <rect x="408" y="210" width="64" height="16" rx="6" fill="#F2EADF" stroke="#C2B49F" stroke-width="2.5" />
    <rect x="408" y="234" width="64" height="16" rx="6" fill="#F2EADF" stroke="#C2B49F" stroke-width="2.5" />
    <rect x="408" y="258" width="64" height="16" rx="6" fill="#F2EADF" stroke="#C2B49F" stroke-width="2.5" />

    <rect x="262" y="190" width="48" height="38" rx="8" fill="#F2EADF" stroke="#C2B49F" stroke-width="2.5" />
    <rect x="262" y="238" width="48" height="34" rx="8" fill="#F2EADF" stroke="#C2B49F" stroke-width="2.5" />
    <rect x="348" y="190" width="48" height="38" rx="8" fill="#F2EADF" stroke="#C2B49F" stroke-width="2.5" />
    <rect x="348" y="238" width="48" height="34" rx="8" fill="#F2EADF" stroke="#C2B49F" stroke-width="2.5" />
  </g>

  <g opacity="0.92">
    <rect x="160" y="286" width="48" height="34" rx="7" fill="#E9DFD0" stroke="#BDAE96" stroke-width="2.5" />
    <rect x="216" y="286" width="48" height="34" rx="7" fill="#E9DFD0" stroke="#BDAE96" stroke-width="2.5" />
    <rect x="272" y="286" width="48" height="34" rx="7" fill="#E9DFD0" stroke="#BDAE96" stroke-width="2.5" />
    <rect x="338" y="286" width="54" height="34" rx="7" fill="#E9DFD0" stroke="#BDAE96" stroke-width="2.5" />
    <rect x="402" y="286" width="56" height="34" rx="7" fill="#E9DFD0" stroke="#BDAE96" stroke-width="2.5" />
  </g>

  <g opacity="0.96">
    <rect x="390" y="146" width="92" height="28" rx="8" fill="#9FB38A" stroke="#73895B" stroke-width="3" />
    <rect x="390" y="176" width="92" height="24" rx="8" fill="#9FB38A" stroke="#73895B" stroke-width="3" />
    <rect x="390" y="204" width="92" height="24" rx="8" fill="#9FB38A" stroke="#73895B" stroke-width="3" />
  </g>

  <g opacity="0.96">
    <rect x="470" y="250" width="52" height="70" rx="8" fill="#C8D7B3" stroke="#789260" stroke-width="3" />
    <rect x="476" y="258" width="40" height="56" rx="6" fill="#93AE77" />
    <path d="M496 258V314" stroke="#D7E4C4" stroke-width="2.5" />
    <path d="M476 286H516" stroke="#D7E4C4" stroke-width="2.5" />
  </g>

  <g opacity="0.98">
    <rect x="488" y="158" width="60" height="38" rx="8" fill="#E1E9D9" stroke="#8BA16F" stroke-width="3" />
    <rect x="492" y="162" width="52" height="30" rx="5" fill="#A7D0CF" />
    <rect x="486" y="202" width="64" height="48" rx="8" fill="#D9DFCF" stroke="#B6A78E" stroke-width="3" />
    <ellipse cx="520" cy="286" rx="18" ry="18" fill="#E7DFD1" stroke="#BCAA8F" stroke-width="3" />
    <ellipse cx="520" cy="286" rx="8" ry="8" fill="#C9B99F" />
  </g>

  <g opacity="0.98">
    <path d="M210 126C226 106 246 92 270 82C294 72 320 68 348 70C376 72 401 79 425 91" stroke="#8BA16F" stroke-width="8" stroke-linecap="round" />
    <path d="M184 336C218 352 260 360 302 362C343 364 388 360 430 348" stroke="#8BA16F" stroke-width="8" stroke-linecap="round" opacity="0.8" />
  </g>

  <g opacity="0.98">
    <rect x="232" y="134" width="82" height="42" rx="10" fill="#C5D4B0" stroke="#8BA16F" stroke-width="3" />
    <rect x="326" y="134" width="50" height="58" rx="10" fill="#F4EDE2" stroke="#BCAD95" stroke-width="3" />
    <path d="M351 134V192" stroke="#CFBDA6" stroke-width="3" />
    <path d="M326 160H376" stroke="#CFBDA6" stroke-width="3" />
  </g>
</svg>
